<?xml version="1.0" encoding="UTF-8"?><svg id="Layer_1" xmlns="http://www.w3.org/2000/svg" version="1.1" viewBox="0 0 240.95 425.2"><!--Generator: Adobe Illustrator 29.8.1, SVG Export Plug-In . SVG Version: 2.1.1 Build 2)--><defs><style>.st0 {
        fill: #5a2483;
      }</style></defs><path class="st0" d="M231.55,61.61c0,7.56-10.64,7.56-10.64,15.11s10.64,7.56,10.64,15.11-10.64,7.55-10.64,15.11,10.64,7.55,10.64,15.11-10.64,7.55-10.64,15.11,10.64,7.55,10.64,15.1-10.64,7.56-10.64,15.11,10.64,7.56,10.64,15.11-10.64,7.56-10.64,15.11,10.64,7.55,10.64,15.11-10.64,7.55-10.64,15.11,10.64,7.55,10.64,15.11-10.64,7.55-10.64,15.1,10.64,7.56,10.64,15.11-10.64,7.56-10.64,15.11,10.64,7.56,10.64,15.11-10.64,7.55-10.64,15.11,10.64,7.55,10.64,15.11-10.64,7.55-10.64,15.11,10.64,7.55,10.64,15.1-10.64,7.56-10.64,15.11,10.64,7.56,10.64,15.11-3.74,6.01-9.08,11.35-3.79,9.08-11.35,9.08-7.55-10.64-15.11-10.64-7.55,10.64-15.11,10.64-7.55-10.64-15.1-10.64-7.56,10.64-15.11,10.64-7.56-10.64-15.11-10.64-7.56,10.64-15.11,10.64-7.55-10.64-15.11-10.64-7.55,10.64-15.11,10.64-7.55-10.64-15.11-10.64-7.55,10.64-15.1,10.64-7.56-10.64-15.11-10.64-7.56,10.64-15.11,10.64-6.01-3.74-11.35-9.08c-5.34-5.34-9.08-3.79-9.08-11.35s10.64-7.55,10.64-15.11-10.64-7.55-10.64-15.11,10.64-7.55,10.64-15.1-10.64-7.56-10.64-15.11,10.64-7.56,10.64-15.11-10.64-7.56-10.64-15.11,10.64-7.55,10.64-15.11-10.64-7.55-10.64-15.11,10.64-7.55,10.64-15.11-10.64-7.55-10.64-15.1,10.64-7.56,10.64-15.11-10.64-7.56-10.64-15.11,10.64-7.56,10.64-15.11-10.64-7.55-10.64-15.11,10.64-7.55,10.64-15.11-10.64-7.55-10.64-15.11,10.64-7.55,10.64-15.1-10.64-7.56-10.64-15.11,10.64-7.56,10.64-15.11-10.64-7.56-10.64-15.11,10.64-7.55,10.64-15.11-10.64-7.55-10.64-15.11,10.64-7.55,10.64-15.11-10.64-7.55-10.64-15.1,3.74-6.01,9.08-11.35c5.34-5.34,3.79-9.08,11.35-9.08s7.55,10.64,15.11,10.64,7.55-10.64,15.11-10.64,7.55,10.64,15.1,10.64,7.56-10.64,15.11-10.64,7.56,10.64,15.11,10.64,7.56-10.64,15.11-10.64,7.55,10.64,15.11,10.64,7.55-10.64,15.11-10.64,7.55,10.64,15.11,10.64,7.55-10.64,15.1-10.64,7.56,10.64,15.11,10.64,5.99-8.65,13.9-10.5c7.35-1.73,7.22,3.6,12.56,8.94s9.08,3.79,9.08,11.35-10.64,7.55-10.64,15.1,10.64,7.56,10.64,15.11M0,428.15h240.94V0H0v428.15Z"/></svg>